<?xml version="1.0" encoding="UTF-8" standalone="no"?>
<!-- Created with Inkscape (http://www.inkscape.org/) -->

<svg
   width="1280px"
   height="640px"
   viewBox="0 0 1280 640"
   version="1.1"
   id="SVGRoot"
   sodipodi:docname="ue_profile.svg"
   inkscape:version="1.2 (dc2aedaf03, 2022-05-15)"
   xmlns:inkscape="http://www.inkscape.org/namespaces/inkscape"
   xmlns:sodipodi="http://sodipodi.sourceforge.net/DTD/sodipodi-0.dtd"
   xmlns="http://www.w3.org/2000/svg"
   xmlns:svg="http://www.w3.org/2000/svg">
  <sodipodi:namedview
     id="namedview14"
     pagecolor="#505050"
     bordercolor="#eeeeee"
     borderopacity="1"
     inkscape:showpageshadow="0"
     inkscape:pageopacity="0"
     inkscape:pagecheckerboard="0"
     inkscape:deskcolor="#505050"
     inkscape:document-units="px"
     showgrid="false"
     inkscape:zoom="1.4142136"
     inkscape:cx="1021.7693"
     inkscape:cy="254.55844"
     inkscape:window-width="3440"
     inkscape:window-height="1369"
     inkscape:window-x="-8"
     inkscape:window-y="-8"
     inkscape:window-maximized="1"
     inkscape:current-layer="layer1"
     inkscape:lockguides="true"
     showguides="true">
    <sodipodi:guide
       position="472.34733,640"
       orientation="0,-1"
       id="guide342"
       inkscape:locked="true" />
    <sodipodi:guide
       position="0,491.50758"
       orientation="1,0"
       id="guide391"
       inkscape:locked="true" />
    <sodipodi:guide
       position="639.93163,608.18019"
       orientation="1,0"
       id="guide163"
       inkscape:locked="true" />
    <sodipodi:guide
       position="-111.01576,320.38774"
       orientation="0,-1"
       id="guide165"
       inkscape:locked="true" />
  </sodipodi:namedview>
  <defs
     id="defs9" />
  <g
     inkscape:label="Ebene 1"
     inkscape:groupmode="layer"
     id="layer1">
    <rect
       style="fill:#000000"
       id="rect126"
       width="1280"
       height="640"
       x="0.00035738945"
       y="0" />
    <g
       aria-label="uelgum"
       id="text510"
       style="font-size:233.333px;font-family:Trispace;-inkscape-font-specification:Trispace;fill:#ffffff">
      <path
         d="m 237.0673,384.86412 q -8.98332,0 -16.44998,-2.8 -7.34999,-2.8 -12.59998,-8.74999 -5.13332,-6.06666 -7.93332,-15.51664 -2.8,-9.56665 -2.8,-22.86663 v -69.41657 h 23.09997 v 65.91657 q 0,12.36665 2.56666,20.06664 2.68333,7.58332 7.93333,11.19998 5.36665,3.5 13.64998,3.5 5.94999,0 11.19998,-2.33333 5.36666,-2.33333 9.44999,-6.53333 4.19999,-4.19999 6.76665,-9.68332 2.56666,-5.48332 2.91666,-11.66665 l 6.53333,2.1 q 0,8.74999 -2.91666,17.14998 -2.8,8.28332 -8.39999,15.04997 -5.48333,6.64999 -13.76665,10.61665 -8.28332,3.96667 -19.24997,3.96667 z m 41.53327,-2.68333 -4.31666,-24.96663 v -91.69987 h 23.09997 V 369.9308 l -4.55,-5.48332 h 18.31664 v 17.73331 z"
         id="path616" />
      <path
         d="m 402.26696,384.74745 q -10.49998,0 -20.8833,-3.61666 -10.26665,-3.73333 -18.66664,-11.19999 -8.39999,-7.46665 -13.41664,-19.01663 -5.01666,-11.54999 -5.01666,-27.29996 0,-15.74998 5.01666,-27.29997 5.01665,-11.54998 13.41664,-18.89997 8.51666,-7.46665 18.89997,-11.08331 10.38332,-3.61667 21.11664,-3.61667 11.19998,0 21.46664,3.5 10.26665,3.49999 18.19997,10.38332 8.04999,6.88332 12.71665,17.26664 4.66666,10.38332 4.66666,24.26663 0,2.21666 -0.23334,4.89999 -0.11666,2.68333 -0.58333,4.66666 h -96.24986 v -14.81664 h 72.68323 q 0,-0.7 0,-0.93333 0,-0.35 0,-0.93334 0,-9.44998 -4.43333,-16.33331 -4.43332,-6.88332 -11.89998,-10.49998 -7.34999,-3.73333 -15.98331,-3.73333 -6.29999,0 -12.48332,2.45 -6.18332,2.33333 -11.31665,7.46665 -5.13332,5.13333 -8.28332,13.41665 -3.03333,8.16666 -3.03333,19.71664 0,14.34998 5.01666,24.0333 5.13333,9.56665 13.18332,14.46664 8.16665,4.9 17.38331,4.9 8.63332,0 14.93331,-2.68333 6.29999,-2.8 10.26665,-6.88333 3.96666,-4.19999 5.36666,-8.16665 l 21.2333,10.61665 q -2.68333,4.89999 -7.46666,9.44999 -4.66666,4.43332 -11.43331,7.93332 -6.64999,3.49999 -15.28331,5.48332 -8.51666,2.1 -18.89998,2.1 z"
         id="path618" />
      <path
         d="m 487.20008,382.18079 v -17.73331 h 36.16661 V 224.91435 h -29.39995 v -17.73331 h 52.61659 v 157.26644 h 37.09994 v 17.73331 z"
         id="path620" />
      <path
         d="m 670.24982,431.64738 q -11.66665,0 -20.8833,-3.14999 -9.21666,-3.03333 -15.86665,-8.51666 -6.53332,-5.48332 -10.03331,-12.59998 -3.38333,-6.99999 -3.38333,-14.81665 h 23.09996 q 0,2.68333 1.4,6.18333 1.51667,3.61666 4.78333,6.99999 3.26666,3.38333 8.51665,5.59999 5.24999,2.21666 12.83332,2.21666 10.03331,0 16.79997,-4.78332 6.76666,-4.78333 10.14999,-13.29998 3.49999,-8.51666 3.49999,-19.59997 v -85.74988 l 1.05,-24.61663 h 22.04997 V 374.1308 q 0,11.08332 -2.56666,20.06664 -2.45,9.09998 -7.23333,16.09997 -4.66666,6.99999 -11.31665,11.78332 -6.64999,4.78332 -14.93331,7.11665 -8.28332,2.45 -17.96664,2.45 z m -4.31666,-46.89993 q -9.21665,0 -18.08331,-3.61666 -8.74998,-3.61666 -15.86664,-11.08332 -7.11666,-7.58332 -11.43332,-19.1333 -4.19999,-11.54999 -4.19999,-27.29996 0,-20.99997 6.99999,-34.41662 6.99999,-13.53331 18.08331,-19.83331 11.08331,-6.41665 23.33329,-6.41665 10.96666,0 19.48331,4.31666 8.63332,4.31666 14.58331,11.31665 6.06666,6.88332 9.09999,14.93331 3.14999,8.04999 3.14999,15.51664 l -8.74998,3.15 q -1.16667,-5.71666 -3.73333,-11.08332 -2.45,-5.48332 -6.41666,-9.91665 -3.96666,-4.43333 -9.21665,-6.99999 -5.24999,-2.68333 -11.78332,-2.68333 -8.63332,0 -15.86664,4.54999 -7.23332,4.43333 -11.54998,13.76665 -4.31666,9.21665 -4.31666,23.79997 0,14.34997 4.43332,23.79996 4.55,9.44999 11.89998,14.11665 7.46666,4.66666 16.21665,4.66666 6.41665,0 11.66665,-2.8 5.36666,-2.91666 9.21665,-7.69999 3.84999,-4.78332 6.18332,-10.73332 2.33333,-5.94999 2.91667,-12.24998 l 9.44998,3.15 q 0,7.69999 -3.03333,16.33331 -3.03332,8.51665 -8.86665,15.98331 -5.83332,7.34999 -14.23331,12.01665 -8.39999,4.54999 -19.36664,4.54999 z"
         id="path622" />
      <path
         d="m 808.73283,384.86412 q -8.98332,0 -16.44998,-2.8 -7.34999,-2.8 -12.59998,-8.74999 -5.13333,-6.06666 -7.93332,-15.51664 -2.8,-9.56665 -2.8,-22.86663 v -69.41657 h 23.09997 v 65.91657 q 0,12.36665 2.56666,20.06664 2.68333,7.58332 7.93332,11.19998 5.36666,3.5 13.64998,3.5 5.94999,0 11.19999,-2.33333 5.36666,-2.33333 9.44998,-6.53333 4.2,-4.19999 6.76666,-9.68332 2.56666,-5.48332 2.91666,-11.66665 l 6.53333,2.1 q 0,8.74999 -2.91667,17.14998 -2.79999,8.28332 -8.39998,15.04997 -5.48333,6.64999 -13.76665,10.61665 -8.28332,3.96667 -19.24997,3.96667 z m 41.53327,-2.68333 -4.31666,-24.96663 v -91.69987 h 23.09997 V 369.9308 l -4.55,-5.48332 h 18.31664 v 17.73331 z"
         id="path624" />
      <path
         d="m 1058.5157,382.18079 v -70.3499 q 0,-15.16665 -5.3666,-22.74997 -5.25,-7.58332 -17.3833,-7.58332 -7.7,0 -14.2333,4.19999 -6.4167,4.2 -10.5,10.96665 -3.9667,6.64999 -4.3167,13.99998 l -8.86665,-1.74999 q 0,-8.63332 3.49995,-16.79998 3.6167,-8.28332 9.8,-14.81664 6.3,-6.64999 14.7,-10.49999 8.5167,-3.96666 18.3167,-3.96666 12.3666,0 20.6499,4.89999 8.4,4.78333 12.6,15.04998 4.2,10.14999 4.2,26.36663 v 73.03323 z m -149.21642,0 v -116.6665 h 21.11664 l 1.98333,24.0333 v 92.6332 z m 74.54989,0 v -70.3499 q 0,-15.16665 -5.36665,-22.74997 -5.36666,-7.58332 -17.38331,-7.58332 -7.69999,0 -14.11665,4.19999 -6.41666,4.2 -10.38332,10.96665 -3.96666,6.64999 -4.31666,13.99998 l -8.86665,-1.74999 q 0.11667,-8.63332 3.61666,-16.79998 3.5,-8.28332 9.79999,-14.81664 6.29999,-6.64999 14.58331,-10.49999 8.39999,-3.96666 18.08331,-3.96666 18.66663,0 27.99995,10.49999 9.44995,10.49998 9.44995,32.08328 v 76.76656 z"
         id="path626" />
    </g>
  </g>
</svg>
